<?xml version="1.0" encoding="UTF-8"?><svg xmlns="http://www.w3.org/2000/svg" width="25" height="25" viewBox="0 0 25 25"><path fill="#FFF" fill-rule="nonzero" d="M6 15.1a.9.9 0 01.9.79v2.21H9a.9.9 0 01.9.79V19a.9.9 0 01-.79.9H6a.9.9 0 01-.9-.79V16c0-.5.4-.9.9-.9zm13 0a.9.9 0 01.9.79V19a.9.9 0 01-.79.9H16a.9.9 0 01-.11-1.8h2.21V16a.9.9 0 01.79-.9H19zM9 5.1a.9.9 0 01.11 1.8H6.9V9a.9.9 0 01-.79.9H6a.9.9 0 01-.9-.79V6a.9.9 0 01.79-.9H9zm10 0a.9.9 0 01.9.79V9a.9.9 0 01-1.8.11V6.9H16a.9.9 0 01-.9-.79V6a.9.9 0 01.79-.9H19z"/></svg>
