<?xml version="1.0" encoding="UTF-8"?>
<svg width="97px" height="112px" viewBox="0 0 97 112" version="1.1" xmlns="http://www.w3.org/2000/svg" xmlns:xlink="http://www.w3.org/1999/xlink">
    <!-- Generator: Sketch 64 (93537) - https://sketch.com -->
    <title>Artboard</title>
    <desc>Created with Sketch.</desc>
    <g id="Artboard" stroke="none" stroke-width="1" fill="none" fill-rule="evenodd">
        <path d="M87.2800342,2.53776069 C90.3763305,4.19367807 92.8063219,6.62366952 94.4622393,9.71996582 L94.6535475,10.0845877 L94.8376686,10.4509428 L95.0145636,10.8209956 C96.2852023,13.5530778 96.9697838,16.7419352 96.9990224,23.8742391 L97,65.6505181 C97,74.1199462 96.1181567,77.1911654 94.4622393,80.2874617 C92.8063219,83.383758 90.3763305,85.8137495 87.2800342,87.4696668 L86.9054498,87.6660935 L86.5125692,87.862956 L86.1046773,88.0563616 C83.6379635,89.1904433 80.775646,89.8492572 74.9755145,89.9822858 L74.9491877,90.896399 C74.7379953,96.972693 73.8863979,99.6170892 72.4622393,102.280034 C70.8063219,105.37633 68.3763305,107.806322 65.2800342,109.462239 L64.7433458,109.74109 L64.3750324,109.922038 L64.0020827,110.095722 C61.3079513,111.314344 58.1046907,111.970456 51.1257609,112 L24.3569094,112 C15.8874814,112 12.8162621,111.118157 9.71996582,109.462239 C6.62366952,107.806322 4.19367807,105.37633 2.53776069,102.280034 L2.25890959,101.743346 L2.07796248,101.375032 L1.90427807,101.002083 C0.685658066,98.3079513 0.0295874831,95.1046907 0.000977609997,88.1257609 L1.77635684e-13,46.3569094 C1.77635684e-13,37.8874814 0.881843306,34.8162621 2.53776069,31.7199658 C4.19367807,28.6236695 6.62366952,26.1936781 9.71996582,24.5377607 L10.2566542,24.2589096 L10.6628628,24.0598658 L11.0749497,23.8696511 C13.5010701,22.7859185 16.3620345,22.1555132 22.0169625,22.0253146 L22.0558022,20.7864963 L22.0998997,19.8407256 C22.3819885,14.6457204 23.2104795,12.1908278 24.5319109,9.71996582 C26.1878283,6.62366952 28.6178198,4.19367807 31.714116,2.53776069 L32.078738,2.34645248 L32.6295344,2.07297816 L33.0021729,1.89971079 C35.694213,0.684016939 38.8981832,0.0295082715 45.8683894,-4.61852778e-13 L72.6430906,-4.61852778e-13 C81.1125186,-4.61852778e-13 84.1837379,0.881843306 87.2800342,2.53776069 Z M48.64352,34 L25.9152334,34.0008936 L24.7675884,34.0104741 L23.9889936,34.0237338 C19.611368,34.1169373 18.0520839,34.4915771 16.4359544,35.3558927 C15.0823428,36.0798121 14.0798121,37.0823428 13.3558927,38.4359544 L13.2262054,38.6857422 L13.1011391,38.9436172 C12.313458,40.6317122 12.0146522,42.6047684 12.0005287,47.9492023 L12.0005287,86.0507977 L12.0048158,86.8284818 C12.0501662,92.1002611 12.4214431,93.8167769 13.3558927,95.5640456 C14.0798121,96.9176572 15.0823428,97.9201879 16.4359544,98.6441073 L16.6857422,98.7737946 L16.9747495,98.9133169 C18.5290388,99.6315033 20.3398727,99.9380719 24.8009605,99.9913874 L26.3569094,100 L48.6430906,100 C54.8552015,100 56.691972,99.6453032 58.5640456,98.6441073 C59.9176572,97.9201879 60.9201879,96.9176572 61.6441073,95.5640456 L61.7737946,95.3142578 L61.9133169,95.0252505 C62.6315033,93.4709612 62.9380719,91.6601273 62.9913874,87.1990395 L63,85.6430906 L63,48.3569094 C63,42.1447985 62.6453032,40.308028 61.6441073,38.4359544 C60.9201879,37.0823428 59.9176572,36.0798121 58.5640456,35.3558927 L58.3142578,35.2262054 L58.0252509,35.0866831 C56.4709648,34.3684967 54.6601613,34.0619281 50.1993642,34.0086126 L48.64352,34 Z" id="Shape" fill="#000000" fill-rule="nonzero"></path>
    </g>
</svg>