<?xml version="1.0" standalone="no"?>
<!DOCTYPE svg PUBLIC "-//W3C//DTD SVG 20010904//EN"
 "http://www.w3.org/TR/2001/REC-SVG-20010904/DTD/svg10.dtd">
<svg version="1.0" xmlns="http://www.w3.org/2000/svg"
 width="512.000000pt" height="512.000000pt" viewBox="0 0 512.000000 512.000000"
 preserveAspectRatio="xMidYMid meet">
<metadata>
Created by Daniel Hannih
</metadata>
<g transform="translate(0.000000,512.000000) scale(0.100000,-0.100000)"
fill="#000000" stroke="none">
<path d="M2369 5116 c-2 -2 -35 -6 -74 -10 -38 -3 -79 -8 -91 -10 -12 -2 -45
-7 -74 -11 -62 -8 -261 -56 -345 -83 -558 -183 -1030 -539 -1355 -1021 -32
-49 -69 -107 -81 -128 -173 -308 -273 -592 -325 -928 -27 -178 -27 -526 0
-728 73 -530 336 -1057 724 -1444 394 -394 892 -644 1447 -729 203 -31 619
-25 795 11 14 3 41 8 60 11 48 8 242 59 315 82 420 137 829 410 1126 752 167
192 320 431 408 640 18 41 36 84 42 95 21 46 82 237 105 330 54 221 69 356 69
620 0 203 -6 286 -31 428 -174 1007 -936 1819 -1929 2057 -196 47 -321 62
-561 66 -122 2 -223 2 -225 0z"/>
</g>
</svg>
